<svg xmlns="http://www.w3.org/2000/svg" viewBox="0 0 364 258" enable-background="new 0 0 364 258"><path d="M78.145 157.608c1.267 0 2.087.5 2.608 1.64L90.886 183c.298.643.895.5.895-.214v-23.036c0-1.427.82-2.14 2.236-2.14h8.345c1.49 0 2.236.713 2.236 2.14v45.645c0 1.355-.745 2.14-2.235 2.14H91.408c-1.267 0-2.086-.5-2.607-1.64l-10.134-23.75c-.298-.642-.894-.5-.894.214v23.036c0 1.355-.745 2.14-2.235 2.14h-8.345c-1.416 0-2.235-.784-2.235-2.14v-45.645c0-1.427.82-2.14 2.235-2.14h10.953zM148.7 191.485c0 4.707-1.043 17.33-18.702 17.33-17.658 0-18.7-12.623-18.7-17.33v-17.83c0-4.707 1.042-17.33 18.7-17.33 17.66 0 18.702 12.623 18.702 17.33v17.83zm-12.815-14.05c0-5.49-.373-8.843-5.887-8.843s-5.886 3.352-5.886 8.844v10.27c0 5.492.372 8.844 5.886 8.844s5.887-3.352 5.887-8.844v-10.27zM194.666 203.68c1.043 1.855-.148 3.853-2.458 3.853h-8.494c-.745 0-1.416-.356-1.714-.998l-7.75-14.336c-.148-.215-.372-.357-.595-.357h-2.98c-1.342 0-2.31.928-2.31 2.21v11.27c0 1.284-.97 2.21-2.31 2.21h-8.346c-1.342 0-2.31-.926-2.31-2.21V159.82c0-1.282.968-2.21 2.31-2.21h16.316c13.263 0 18.627 5.42 18.627 17.117 0 6.633-1.714 11.27-5.662 13.98-.297.213-.372.57-.223.926l7.9 14.048zm-23.99-33.804c-1.343 0-2.312.927-2.312 2.21v5.278c0 1.283.97 2.21 2.31 2.21h3.8c3.577 0 5.365-.427 5.365-4.85s-1.79-4.85-5.365-4.85h-3.8zM238.845 203.68c1.043 1.855-.148 3.853-2.46 3.853h-8.492c-.745 0-1.416-.356-1.714-.998l-7.75-14.336c-.15-.215-.373-.357-.596-.357h-2.98c-1.342 0-2.31.928-2.31 2.21v11.27c0 1.284-.97 2.21-2.31 2.21h-8.346c-1.34 0-2.31-.926-2.31-2.21V159.82c0-1.282.97-2.21 2.31-2.21h16.317c13.263 0 18.627 5.42 18.627 17.117 0 6.633-1.714 11.27-5.662 13.98-.298.213-.373.57-.224.926l7.9 14.048zm-23.99-33.804c-1.343 0-2.31.927-2.31 2.21v5.278c0 1.283.967 2.21 2.31 2.21h3.8c3.575 0 5.363-.427 5.363-4.85s-1.788-4.85-5.364-4.85h-3.8zM254.188 157.608c1.49 0 2.235.713 2.235 2.14v45.645c0 1.355-.745 2.14-2.235 2.14h-8.195c-1.416 0-2.235-.784-2.235-2.14v-45.645c0-1.427.82-2.14 2.235-2.14h8.195zM289.876 175.296c-1.49.285-2.234-.356-2.458-1.783-.52-2.924-2.98-4.778-6.482-4.778-2.906 0-4.694 1.64-4.396 3.28 1.043 5.563 24.588 5.42 24.588 21.824 0 2.14-2.533 14.762-20.19 14.762-15.648 0-19-9.842-19.373-15.404-.075-1.284.596-2.068 1.937-2.354l8.42-1.783c1.49-.284 2.31.357 2.46 1.855.297 3.423 3.054 5.42 6.556 5.42 3.65 0 6.333-2.068 5.886-3.994-1.415-6.06-23.843-4.706-23.843-21.11-.073-2.14 1.268-14.762 17.958-14.762 15.35 0 18.925 9.557 19.372 14.69.074 1.285-.596 2.07-1.938 2.355l-8.496 1.783z"/><filter id="a" x="-20%" y="-20%" width="140%" height="140%"><feGaussianBlur in="SourceGraphic" stdDeviation="3" result="blur"/><feOffset in="blur" dx="2.5" dy="2.5"/></filter><g class="logo-fill" filter="url(#a)"><path d="M78.145 157.608c1.267 0 2.087.5 2.608 1.64L90.886 183c.298.643.895.5.895-.214v-23.036c0-1.427.82-2.14 2.236-2.14h8.345c1.49 0 2.236.713 2.236 2.14v45.645c0 1.355-.745 2.14-2.235 2.14H91.408c-1.267 0-2.086-.5-2.607-1.64l-10.134-23.75c-.298-.642-.894-.5-.894.214v23.036c0 1.355-.745 2.14-2.235 2.14h-8.345c-1.416 0-2.235-.784-2.235-2.14v-45.645c0-1.427.82-2.14 2.235-2.14h10.953zM148.7 191.485c0 4.707-1.043 17.33-18.702 17.33-17.658 0-18.7-12.623-18.7-17.33v-17.83c0-4.707 1.042-17.33 18.7-17.33 17.66 0 18.702 12.623 18.702 17.33v17.83zm-12.815-14.05c0-5.49-.373-8.843-5.887-8.843s-5.886 3.352-5.886 8.844v10.27c0 5.492.372 8.844 5.886 8.844s5.887-3.352 5.887-8.844v-10.27zM194.666 203.68c1.043 1.855-.148 3.853-2.458 3.853h-8.494c-.745 0-1.416-.356-1.714-.998l-7.75-14.336c-.148-.215-.372-.357-.595-.357h-2.98c-1.342 0-2.31.928-2.31 2.21v11.27c0 1.284-.97 2.21-2.31 2.21h-8.346c-1.342 0-2.31-.926-2.31-2.21V159.82c0-1.282.968-2.21 2.31-2.21h16.316c13.263 0 18.627 5.42 18.627 17.117 0 6.633-1.714 11.27-5.662 13.98-.297.213-.372.57-.223.926l7.9 14.048zm-23.99-33.804c-1.343 0-2.312.927-2.312 2.21v5.278c0 1.283.97 2.21 2.31 2.21h3.8c3.577 0 5.365-.427 5.365-4.85s-1.79-4.85-5.365-4.85h-3.8zM238.845 203.68c1.043 1.855-.148 3.853-2.46 3.853h-8.492c-.745 0-1.416-.356-1.714-.998l-7.75-14.336c-.15-.215-.373-.357-.596-.357h-2.98c-1.342 0-2.31.928-2.31 2.21v11.27c0 1.284-.97 2.21-2.31 2.21h-8.346c-1.34 0-2.31-.926-2.31-2.21V159.82c0-1.282.97-2.21 2.31-2.21h16.317c13.263 0 18.627 5.42 18.627 17.117 0 6.633-1.714 11.27-5.662 13.98-.298.213-.373.57-.224.926l7.9 14.048zm-23.99-33.804c-1.343 0-2.31.927-2.31 2.21v5.278c0 1.283.967 2.21 2.31 2.21h3.8c3.575 0 5.363-.427 5.363-4.85s-1.788-4.85-5.364-4.85h-3.8zM254.188 157.608c1.49 0 2.235.713 2.235 2.14v45.645c0 1.355-.745 2.14-2.235 2.14h-8.195c-1.416 0-2.235-.784-2.235-2.14v-45.645c0-1.427.82-2.14 2.235-2.14h8.195zM289.876 175.296c-1.49.285-2.234-.356-2.458-1.783-.52-2.924-2.98-4.778-6.482-4.778-2.906 0-4.694 1.64-4.396 3.28 1.043 5.563 24.588 5.42 24.588 21.824 0 2.14-2.533 14.762-20.19 14.762-15.648 0-19-9.842-19.373-15.404-.075-1.284.596-2.068 1.937-2.354l8.42-1.783c1.49-.284 2.31.357 2.46 1.855.297 3.423 3.054 5.42 6.556 5.42 3.65 0 6.333-2.068 5.886-3.994-1.415-6.06-23.843-4.706-23.843-21.11-.073-2.14 1.268-14.762 17.958-14.762 15.35 0 18.925 9.557 19.372 14.69.074 1.285-.596 2.07-1.938 2.355l-8.496 1.783z"/></g></svg>