<svg xmlns="http://www.w3.org/2000/svg" viewBox="0 0 364 258" enable-background="new 0 0 364 258"><title>frame</title><path d="M312.22 247.488H51.777c-22.552 0-40.9-18.348-40.9-40.9V51.42c0-22.55 18.348-40.9 40.9-40.9H312.22c22.553 0 40.9 18.35 40.9 40.9v155.17c0 22.553-18.348 40.9-40.9 40.9zM51.777 36.758c-8.085 0-14.663 6.577-14.663 14.662v155.17c0 8.084 6.578 14.662 14.663 14.662H312.22c8.086 0 14.664-6.578 14.664-14.663V51.42c0-8.086-6.578-14.664-14.663-14.664H51.777z"/><filter id="a" x="-20%" y="-20%" width="140%" height="140%"><feGaussianBlur in="SourceGraphic" stdDeviation="3" result="blur"/><feOffset in="blur" dx="2.5" dy="2.5"/></filter><path d="M312.22 247.488H51.777c-22.552 0-40.9-18.348-40.9-40.9V51.42c0-22.55 18.348-40.9 40.9-40.9H312.22c22.553 0 40.9 18.35 40.9 40.9v155.17c0 22.553-18.348 40.9-40.9 40.9zM51.777 36.758c-8.085 0-14.663 6.577-14.663 14.662v155.17c0 8.084 6.578 14.662 14.663 14.662H312.22c8.086 0 14.664-6.578 14.664-14.663V51.42c0-8.086-6.578-14.664-14.663-14.664H51.777z" class="logo-fill" filter="url(#a)"/></svg>
