<?xml version="1.0" encoding="utf-8"?>
<!-- Generator: Adobe Illustrator 19.1.0, SVG Export Plug-In . SVG Version: 6.00 Build 0)  -->
<svg version="1.1" id="Layer_1" xmlns="http://www.w3.org/2000/svg" xmlns:xlink="http://www.w3.org/1999/xlink" x="0px" y="0px"
	 viewBox="0 0 48 48" enable-background="new 0 0 48 48" xml:space="preserve">
<g>
	<circle fill="#57595B" cx="24" cy="24" r="24"/>
	<g>
		<path fill="#FFFFFF" d="M13.149,34h5.416c0,0,5.91-0.219,5.91-6.195c0,0,0.258-4.864-3.484-4.864c0,0,2.838-0.222,2.838-3.725
			c0-3.505-2.322-5.215-5.264-5.215h-5.416h-0.16H9.117v20h3.871H13.149z M13.149,17.482h4.719h0.697c0,0,1.315,0,1.315,2.035
			c0,2.037-0.773,2.333-1.65,2.333h-5.08V17.482z M13.149,24.871h5.416c0,0,1.959-0.029,1.959,2.689c0,2.29-1.463,2.526-2.232,2.545
			c-0.145,0.002-0.266,0-0.348,0h-4.795V24.871z"/>
		<path fill="#FFFFFF" d="M32.358,18.983c-7.154,0-7.148,7.524-7.148,7.524s-0.492,7.487,7.148,7.487c0,0,6.367,0.382,6.367-5.209
			H35.45c0,0,0.109,2.107-2.982,2.107c0,0-3.275,0.23-3.275-3.408h9.641C38.832,27.484,39.887,18.983,32.358,18.983z M29.155,24.871
			c0,0,0.4-3.02,3.275-3.02s2.836,3.02,2.836,3.02H29.155z"/>
		<rect x="28.354" y="15.153" fill="#FFFFFF" width="7.676" height="1.847"/>
	</g>
</g>
</svg>
