<?xml version="1.0" encoding="utf-8"?>
<!-- Generator: Adobe Illustrator 19.1.0, SVG Export Plug-In . SVG Version: 6.00 Build 0)  -->
<svg version="1.1" id="Layer_1" xmlns="http://www.w3.org/2000/svg" xmlns:xlink="http://www.w3.org/1999/xlink" x="0px" y="0px"
	 viewBox="0 0 48 48" enable-background="new 0 0 48 48" xml:space="preserve">
<g>
	<circle fill="#57595B" cx="24" cy="24" r="24"/>
	<g>
		<path fill="#FFFFFF" d="M35.311,22.07c-0.506,0-0.99,0.109-1.428,0.306C33.588,18.802,30.801,16,27.4,16
			c-0.834,0-1.646,0.176-2.361,0.474c-0.279,0.115-0.352,0.235-0.356,0.466v12.585c0.004,0.243,0.178,0.447,0.399,0.47
			C25.092,29.998,35.244,30,35.311,30C37.348,30,39,28.226,39,26.037C39,23.846,37.348,22.07,35.311,22.07z"/>
		<path fill="#FFFFFF" d="M15.713,26.293l-0.266-5.327c-0.006-0.136-0.106-0.241-0.227-0.241c-0.121,0-0.221,0.105-0.227,0.241
			l-0.234,5.327l0.234,3.444c0.006,0.134,0.105,0.241,0.227,0.241c0.121,0,0.221-0.107,0.227-0.243v0.002L15.713,26.293z"/>
		<path fill="#FFFFFF" d="M14.498,26.293l-0.283-3.276c-0.008-0.122-0.094-0.214-0.201-0.214s-0.195,0.095-0.201,0.216l-0.25,3.274
			l0.25,3.442c0.006,0.122,0.094,0.212,0.201,0.212s0.193-0.09,0.201-0.212l0,0L14.498,26.293z"/>
		<path fill="#FFFFFF" d="M16.94,26.295l-0.248-6.547c-0.008-0.151-0.119-0.269-0.254-0.269c-0.135,0-0.246,0.118-0.252,0.269
			l-0.219,6.547l0.219,3.421c0.006,0.149,0.117,0.267,0.252,0.267c0.135,0,0.246-0.117,0.254-0.269v0.002L16.94,26.295z"/>
		<path fill="#FFFFFF" d="M10.449,29.253c0.062,0,0.115-0.052,0.123-0.13l0.336-2.831l-0.334-2.897
			c-0.01-0.076-0.062-0.13-0.125-0.13c-0.064,0-0.117,0.055-0.125,0.13l-0.297,2.897l0.297,2.831
			C10.332,29.198,10.385,29.253,10.449,29.253z"/>
		<path fill="#FFFFFF" d="M11.627,29.761c0.078,0,0.141-0.067,0.15-0.157l0.318-3.312l-0.318-3.436
			c-0.01-0.09-0.072-0.158-0.15-0.158s-0.143,0.067-0.15,0.158l-0.279,3.436l0.279,3.312C11.484,29.693,11.549,29.761,11.627,29.761
			z"/>
		<path fill="#FFFFFF" d="M19.205,18.966c-0.006-0.183-0.137-0.325-0.303-0.325c-0.166,0-0.299,0.143-0.305,0.325l-0.19,7.33
			l0.19,3.365c0.006,0.181,0.139,0.323,0.305,0.323c0.166,0,0.297-0.143,0.303-0.323l0,0l0.215-3.365L19.205,18.966z"/>
		<path fill="#FFFFFF" d="M12.816,29.893c0.092,0,0.166-0.08,0.176-0.187l0.299-3.413l-0.299-3.531
			c-0.01-0.107-0.084-0.187-0.176-0.187c-0.094,0-0.17,0.08-0.176,0.187l-0.266,3.531l0.266,3.413
			C12.647,29.813,12.723,29.893,12.816,29.893z"/>
		<path fill="#FFFFFF" d="M18.174,26.295l-0.231-7.092c-0.006-0.166-0.129-0.298-0.277-0.298c-0.152,0-0.273,0.132-0.279,0.298
			l-0.205,7.092l0.205,3.386c0.006,0.166,0.127,0.296,0.279,0.296c0.149,0,0.271-0.13,0.277-0.298v0.004L18.174,26.295z"/>
		<path fill="#FFFFFF" d="M20.672,26.295l-0.195-7.145c-0.004-0.195-0.148-0.351-0.33-0.351c-0.18,0-0.324,0.155-0.328,0.351
			l-0.174,7.145l0.174,3.333c0.004,0.195,0.148,0.353,0.328,0.353c0.182,0,0.326-0.157,0.33-0.353l0,0L20.672,26.295z"/>
		<path fill="#FFFFFF" d="M9.34,24.375c-0.062,0-0.111,0.052-0.121,0.126L9,26.291l0.219,1.761c0.01,0.073,0.059,0.126,0.121,0.126
			c0.061,0,0.109-0.052,0.119-0.126l0.26-1.761l-0.26-1.79C9.449,24.427,9.4,24.375,9.34,24.375z"/>
		<path fill="#FFFFFF" d="M23.211,26.297l-0.16-8.192c-0.004-0.222-0.176-0.405-0.381-0.405c-0.209,0-0.379,0.183-0.381,0.405
			l-0.145,8.19l0.145,3.291c0.002,0.222,0.172,0.407,0.381,0.407c0.205,0,0.377-0.185,0.381-0.409v0.004L23.211,26.297z"/>
		<path fill="#FFFFFF" d="M23.93,16.93c-0.221,0-0.404,0.195-0.408,0.434l-0.166,8.933l0.166,3.243
			c0.004,0.237,0.188,0.432,0.408,0.432c0.219,0,0.402-0.195,0.406-0.434v0.002l0.182-3.243l-0.182-8.933
			C24.332,17.125,24.149,16.93,23.93,16.93z"/>
		<path fill="#FFFFFF" d="M21.938,26.295l-0.18-6.882c-0.004-0.212-0.16-0.38-0.353-0.38c-0.197,0-0.352,0.168-0.355,0.38
			l-0.158,6.882l0.158,3.314c0.004,0.208,0.158,0.376,0.355,0.376c0.193,0,0.35-0.168,0.353-0.378v0.002L21.938,26.295z"/>
	</g>
</g>
</svg>
