<?xml version="1.0" encoding="utf-8"?>
<!-- Generator: Adobe Illustrator 19.1.0, SVG Export Plug-In . SVG Version: 6.00 Build 0)  -->
<svg version="1.1" id="Layer_1" xmlns="http://www.w3.org/2000/svg" xmlns:xlink="http://www.w3.org/1999/xlink" x="0px" y="0px"
	 viewBox="0 0 48 48" enable-background="new 0 0 48 48" xml:space="preserve">
<g>
	<circle fill="#57595B" cx="24" cy="24" r="24"/>
	<g>
		<path fill="#FFF3F3" d="M37.515,19.727c-0.002-0.017-0.007-0.033-0.01-0.051c-0.006-0.033-0.012-0.065-0.02-0.097
			c-0.005-0.019-0.012-0.038-0.018-0.056c-0.009-0.028-0.018-0.057-0.03-0.085c-0.008-0.019-0.017-0.038-0.026-0.057
			c-0.012-0.026-0.025-0.052-0.04-0.077c-0.011-0.019-0.022-0.036-0.033-0.054c-0.016-0.024-0.032-0.048-0.049-0.07
			c-0.013-0.017-0.026-0.034-0.04-0.05c-0.018-0.021-0.038-0.043-0.058-0.063c-0.015-0.016-0.03-0.031-0.046-0.046
			c-0.021-0.019-0.043-0.038-0.066-0.055c-0.017-0.014-0.035-0.027-0.053-0.04c-0.007-0.004-0.013-0.01-0.019-0.014L24.645,10.67
			c-0.391-0.26-0.899-0.26-1.29,0l-12.363,8.242c-0.006,0.004-0.012,0.01-0.019,0.014c-0.018,0.013-0.035,0.026-0.052,0.04
			c-0.023,0.018-0.045,0.036-0.066,0.055c-0.016,0.014-0.031,0.03-0.047,0.046c-0.02,0.02-0.039,0.041-0.058,0.063
			c-0.014,0.016-0.027,0.033-0.04,0.05c-0.017,0.023-0.033,0.046-0.049,0.07c-0.012,0.018-0.023,0.036-0.033,0.054
			c-0.014,0.025-0.027,0.051-0.04,0.077c-0.009,0.018-0.018,0.038-0.026,0.057c-0.011,0.028-0.021,0.056-0.03,0.085
			c-0.006,0.018-0.013,0.037-0.018,0.056c-0.009,0.032-0.014,0.065-0.02,0.097c-0.003,0.017-0.007,0.033-0.009,0.051
			c-0.007,0.05-0.011,0.1-0.011,0.152v8.242c0,0.051,0.004,0.102,0.011,0.152c0.002,0.016,0.006,0.033,0.009,0.05
			c0.006,0.033,0.012,0.065,0.02,0.098c0.005,0.019,0.012,0.038,0.018,0.056c0.009,0.028,0.018,0.057,0.03,0.085
			c0.008,0.019,0.017,0.038,0.026,0.056c0.012,0.026,0.025,0.052,0.04,0.078c0.011,0.018,0.022,0.036,0.033,0.053
			c0.015,0.024,0.032,0.048,0.049,0.07c0.013,0.018,0.026,0.034,0.04,0.05c0.018,0.021,0.037,0.043,0.058,0.063
			c0.015,0.016,0.03,0.031,0.047,0.045c0.021,0.019,0.043,0.038,0.066,0.056c0.017,0.014,0.034,0.027,0.052,0.04
			c0.007,0.004,0.013,0.01,0.019,0.014l12.363,8.242c0.195,0.13,0.42,0.196,0.645,0.196c0.224,0,0.449-0.065,0.645-0.196
			l12.363-8.242c0.006-0.004,0.012-0.01,0.019-0.014c0.018-0.013,0.035-0.026,0.053-0.04c0.022-0.018,0.044-0.036,0.066-0.056
			c0.016-0.014,0.031-0.03,0.046-0.045c0.02-0.02,0.04-0.041,0.058-0.063c0.014-0.016,0.027-0.033,0.04-0.05
			c0.017-0.023,0.034-0.046,0.049-0.07c0.011-0.018,0.022-0.036,0.033-0.053c0.015-0.026,0.027-0.051,0.04-0.078
			c0.009-0.018,0.018-0.037,0.026-0.056c0.011-0.028,0.021-0.057,0.03-0.085c0.006-0.018,0.013-0.037,0.018-0.056
			c0.009-0.032,0.015-0.065,0.02-0.098c0.003-0.016,0.007-0.033,0.01-0.05c0.006-0.051,0.01-0.101,0.01-0.152v-8.242
			C37.525,19.828,37.521,19.777,37.515,19.727z M25.162,13.809l9.107,6.071l-4.068,2.721l-5.039-3.371V13.809z M22.838,13.809v5.421
			l-5.039,3.371L13.73,19.88L22.838,13.809z M12.8,22.055L15.708,24L12.8,25.945V22.055z M22.838,34.19l-9.107-6.071l4.068-2.721
			l5.039,3.37V34.19z M24,26.75L19.889,24L24,21.25L28.111,24L24,26.75z M25.162,34.19v-5.421l5.039-3.37l4.068,2.721L25.162,34.19z
			 M35.2,25.945L32.292,24l2.908-1.945V25.945z"/>
	</g>
</g>
</svg>
