<?xml version="1.0" encoding="utf-8"?>
<!-- Generator: Adobe Illustrator 19.1.0, SVG Export Plug-In . SVG Version: 6.00 Build 0)  -->
<svg version="1.1" id="Layer_1" xmlns="http://www.w3.org/2000/svg" xmlns:xlink="http://www.w3.org/1999/xlink" x="0px" y="0px"
	 viewBox="0 0 48 48" enable-background="new 0 0 48 48" xml:space="preserve">
<g>
	<circle fill="#57595B" cx="24" cy="24" r="24"/>
	<g>
		<path fill="#FFFFFF" d="M17.151,38.809c0.028,0.205,0.301,0.254,0.424,0.1c0.176-0.221,2.444-2.932,3.215-5.639
			c0.218-0.768,1.251-4.736,1.251-4.736c0.62,1.143,2.428,2.146,4.351,2.146c5.724,0,9.607-5.049,9.607-11.809
			C36,13.76,31.525,9,24.725,9C16.267,9,12,14.87,12,19.764c0,2.963,1.16,5.6,3.645,6.584c0.41,0.16,0.775,0.006,0.892-0.432
			c0.083-0.303,0.276-1.064,0.365-1.385c0.117-0.432,0.073-0.582-0.256-0.959c-0.719-0.818-1.177-1.879-1.177-3.379
			c0-4.355,3.369-8.254,8.768-8.254c4.781,0,7.409,2.828,7.409,6.604c0,4.969-2.273,9.162-5.643,9.162
			c-1.865,0-3.26-1.49-2.814-3.318c0.537-2.184,1.574-4.539,1.574-6.115c0-1.41-0.783-2.586-2.402-2.586
			c-1.905,0-3.435,1.906-3.435,4.459c0,1.627,0.569,2.729,0.569,2.729s-1.95,7.988-2.291,9.389
			C16.525,35.049,17.102,38.465,17.151,38.809z"/>
	</g>
</g>
</svg>
