<?xml version="1.0" encoding="utf-8"?>
<!-- Generator: Adobe Illustrator 19.1.0, SVG Export Plug-In . SVG Version: 6.00 Build 0)  -->
<svg version="1.1" id="Layer_1" xmlns="http://www.w3.org/2000/svg" xmlns:xlink="http://www.w3.org/1999/xlink" x="0px" y="0px"
	 viewBox="0 0 48.002 48" enable-background="new 0 0 48.002 48" xml:space="preserve">
<g>
	<path fill="#57595B" d="M48.002,24c0,13.254-10.746,24-23.998,24C10.746,48,0,37.254,0,24C0,10.744,10.746,0,24.004,0
		C37.256,0,48.002,10.744,48.002,24z"/>
	<g>
		<path fill="#FFFFFF" d="M20,39h6c0,0,0-8.282,0-15h4.453L31,18h-4.768v-2.399c0-1.169,0.779-1.441,1.326-1.441
			c0.547,0,3.366,0,3.366,0V9.019L26.289,9c-5.145,0-6.314,3.834-6.314,6.288V18H17v6h3C20,30.799,20,39,20,39z"/>
	</g>
</g>
</svg>
