<svg xmlns="http://www.w3.org/2000/svg" viewBox="0 0 364 258" enable-background="new 0 0 364 258"><path d="M129.546 51.85c2.57 0 4.425 1.776 4.425 4.236v60.676c0 9.02-1.998 33.208-35.828 33.208-30.405 0-35.116-19.542-35.687-30.065-.143-1.913 1.142-3.417 3.14-3.827l15.846-3.416c2.998-.547 5.282 1.366 5.71 4.236.714 6.013 3.283 9.566 10.992 9.566 10.562 0 11.276-6.423 11.276-16.946V56.086c0-2.46 1.856-4.236 4.426-4.236h15.702zM217.76 116.762c0 9.02-2 33.208-35.83 33.208s-35.83-24.19-35.83-33.208V82.598c0-9.02 2-33.208 35.83-33.208s35.83 24.188 35.83 33.208v34.164zM193.206 89.84c0-10.522-.714-16.945-11.277-16.945s-11.277 6.423-11.277 16.945v19.68c0 10.522.714 16.945 11.277 16.945s11.277-6.423 11.277-16.946V89.84zM294.836 51.85c2.854 0 4.282 1.366 4.282 4.1v15.306c0 2.597-1.428 4.1-4.282 4.1H260.29c-2.71 0-4.28 1.366-4.28 4.1v4.373c0 2.596 1.57 4.1 4.28 4.1h22.127c2.854 0 4.282 1.366 4.282 4.1v15.305c0 2.597-1.43 4.1-4.283 4.1H260.29c-2.71 0-4.28 1.367-4.28 4.1v4.374c0 2.595 1.57 4.1 4.28 4.1h34.546c2.854 0 4.282 1.365 4.282 4.1v15.305c0 2.733-1.428 4.1-4.282 4.1h-59.953c-2.713 0-4.282-1.503-4.282-4.1V55.95c0-2.733 1.57-4.1 4.283-4.1h59.953z"/><filter id="a" x="-20%" y="-20%" width="140%" height="140%"><feGaussianBlur in="SourceGraphic" stdDeviation="3" result="blur"/><feOffset in="blur" dx="2.5" dy="2.5"/></filter><g class="logo-fill" filter="url(#a)"><path d="M129.546 51.85c2.57 0 4.425 1.776 4.425 4.236v60.676c0 9.02-1.998 33.208-35.828 33.208-30.405 0-35.116-19.542-35.687-30.065-.143-1.913 1.142-3.417 3.14-3.827l15.846-3.416c2.998-.547 5.282 1.366 5.71 4.236.714 6.013 3.283 9.566 10.992 9.566 10.562 0 11.276-6.423 11.276-16.946V56.086c0-2.46 1.856-4.236 4.426-4.236h15.702zM217.76 116.762c0 9.02-2 33.208-35.83 33.208s-35.83-24.19-35.83-33.208V82.598c0-9.02 2-33.208 35.83-33.208s35.83 24.188 35.83 33.208v34.164zM193.206 89.84c0-10.522-.714-16.945-11.277-16.945s-11.277 6.423-11.277 16.945v19.68c0 10.522.714 16.945 11.277 16.945s11.277-6.423 11.277-16.946V89.84zM294.836 51.85c2.854 0 4.282 1.366 4.282 4.1v15.306c0 2.597-1.428 4.1-4.282 4.1H260.29c-2.71 0-4.28 1.366-4.28 4.1v4.373c0 2.596 1.57 4.1 4.28 4.1h22.127c2.854 0 4.282 1.366 4.282 4.1v15.305c0 2.597-1.43 4.1-4.283 4.1H260.29c-2.71 0-4.28 1.367-4.28 4.1v4.374c0 2.595 1.57 4.1 4.28 4.1h34.546c2.854 0 4.282 1.365 4.282 4.1v15.305c0 2.733-1.428 4.1-4.282 4.1h-59.953c-2.713 0-4.282-1.503-4.282-4.1V55.95c0-2.733 1.57-4.1 4.283-4.1h59.953z"/></g></svg>