<?xml version="1.0" encoding="UTF-8"?><!DOCTYPE svg PUBLIC "-//W3C//DTD SVG 1.1//EN" "http://www.w3.org/Graphics/SVG/1.1/DTD/svg11.dtd"><svg xmlns="http://www.w3.org/2000/svg"><symbol id="logo-frame" viewBox="0 0 364 258"><title>frame</title><path d="M312.22 247.488H51.777c-22.552 0-40.9-18.348-40.9-40.9V51.42c0-22.55 18.348-40.9 40.9-40.9H312.22c22.553 0 40.9 18.35 40.9 40.9v155.17c0 22.553-18.348 40.9-40.9 40.9zM51.777 36.758c-8.085 0-14.663 6.577-14.663 14.662v155.17c0 8.084 6.578 14.662 14.663 14.662H312.22c8.086 0 14.664-6.578 14.664-14.663V51.42c0-8.086-6.578-14.664-14.663-14.664H51.778z"/><filter id="a" x="-20%" y="-20%" width="140%" height="140%"><feGaussianBlur in="SourceGraphic" stdDeviation="3" result="blur"/><feOffset in="blur" dx="2.5" dy="2.5"/></filter><path d="M312.22 247.488H51.777c-22.552 0-40.9-18.348-40.9-40.9V51.42c0-22.55 18.348-40.9 40.9-40.9H312.22c22.553 0 40.9 18.35 40.9 40.9v155.17c0 22.553-18.348 40.9-40.9 40.9zM51.777 36.758c-8.085 0-14.663 6.577-14.663 14.662v155.17c0 8.084 6.578 14.662 14.663 14.662H312.22c8.086 0 14.664-6.578 14.664-14.663V51.42c0-8.086-6.578-14.664-14.663-14.664H51.778z" class="logo-fill" filter="url(#a)"/></symbol><symbol id="logo-joe" viewBox="0 0 364 258"><title>joe</title><path d="M129.546 51.85c2.57 0 4.425 1.776 4.425 4.236v60.676c0 9.02-1.997 33.208-35.827 33.208-30.405 0-35.116-19.542-35.687-30.065-.143-1.913 1.142-3.417 3.14-3.827l15.846-3.416c2.998-.547 5.282 1.366 5.71 4.236.714 6.013 3.283 9.566 10.992 9.566 10.562 0 11.276-6.423 11.276-16.946V56.086c0-2.46 1.856-4.236 4.426-4.236h15.702zm88.214 64.912c0 9.02-2 33.208-35.83 33.208s-35.83-24.19-35.83-33.208V82.598c0-9.02 2-33.208 35.83-33.208s35.83 24.188 35.83 33.208v34.164zM193.206 89.84c0-10.522-.714-16.945-11.277-16.945S170.65 79.318 170.65 89.84v19.68c0 10.522.714 16.945 11.277 16.945s11.276-6.423 11.276-16.946V89.84zm101.63-37.99c2.854 0 4.282 1.366 4.282 4.1v15.306c0 2.597-1.428 4.1-4.282 4.1H260.29c-2.71 0-4.28 1.366-4.28 4.1v4.373c0 2.595 1.57 4.1 4.28 4.1h22.127c2.854 0 4.282 1.365 4.282 4.1v15.304c0 2.597-1.43 4.1-4.284 4.1H260.29c-2.71 0-4.28 1.367-4.28 4.1v4.374c0 2.595 1.57 4.1 4.28 4.1h34.546c2.854 0 4.282 1.365 4.282 4.1v15.305c0 2.733-1.428 4.1-4.282 4.1h-59.953c-2.713 0-4.282-1.503-4.282-4.1V55.95c0-2.733 1.57-4.1 4.284-4.1h59.953z"/><filter id="a" x="-20%" y="-20%" width="140%" height="140%"><feGaussianBlur in="SourceGraphic" stdDeviation="3" result="blur"/><feOffset in="blur" dx="2.5" dy="2.5"/></filter><path d="M129.546 51.85c2.57 0 4.425 1.776 4.425 4.236v60.676c0 9.02-1.997 33.208-35.827 33.208-30.405 0-35.116-19.542-35.687-30.065-.143-1.913 1.142-3.417 3.14-3.827l15.846-3.416c2.998-.547 5.282 1.366 5.71 4.236.714 6.013 3.283 9.566 10.992 9.566 10.562 0 11.276-6.423 11.276-16.946V56.086c0-2.46 1.856-4.236 4.426-4.236h15.702zm88.214 64.912c0 9.02-2 33.208-35.83 33.208s-35.83-24.19-35.83-33.208V82.598c0-9.02 2-33.208 35.83-33.208s35.83 24.188 35.83 33.208v34.164zM193.206 89.84c0-10.522-.714-16.945-11.277-16.945S170.65 79.318 170.65 89.84v19.68c0 10.522.714 16.945 11.277 16.945s11.276-6.423 11.276-16.946V89.84zm101.63-37.99c2.854 0 4.282 1.366 4.282 4.1v15.306c0 2.597-1.428 4.1-4.282 4.1H260.29c-2.71 0-4.28 1.366-4.28 4.1v4.373c0 2.595 1.57 4.1 4.28 4.1h22.127c2.854 0 4.282 1.365 4.282 4.1v15.304c0 2.597-1.43 4.1-4.284 4.1H260.29c-2.71 0-4.28 1.367-4.28 4.1v4.374c0 2.595 1.57 4.1 4.28 4.1h34.546c2.854 0 4.282 1.365 4.282 4.1v15.305c0 2.733-1.428 4.1-4.282 4.1h-59.953c-2.713 0-4.282-1.503-4.282-4.1V55.95c0-2.733 1.57-4.1 4.284-4.1h59.953z" class="logo-fill" filter="url(#a)"/></symbol><symbol id="logo-norris" viewBox="0 0 364 258"><title>norris</title><path d="M78.145 157.608c1.267 0 2.087.5 2.608 1.64L90.886 183c.298.643.895.5.895-.214V159.75c0-1.427.82-2.14 2.237-2.14h8.345c1.49 0 2.236.713 2.236 2.14v45.645c0 1.355-.745 2.14-2.235 2.14H91.408c-1.267 0-2.086-.5-2.607-1.64l-10.133-23.75c-.298-.642-.894-.5-.894.214v23.035c0 1.355-.745 2.14-2.235 2.14h-8.345c-1.416 0-2.235-.784-2.235-2.14V159.75c0-1.427.82-2.14 2.235-2.14h10.953zm70.555 33.877c0 4.707-1.043 17.33-18.702 17.33-17.658 0-18.7-12.623-18.7-17.33v-17.83c0-4.707 1.042-17.33 18.7-17.33 17.66 0 18.702 12.623 18.702 17.33v17.83zm-12.815-14.05c0-5.49-.373-8.843-5.887-8.843s-5.886 3.352-5.886 8.844v10.27c0 5.492.372 8.844 5.886 8.844s5.887-3.352 5.887-8.844v-10.27zm58.78 26.245c1.044 1.855-.147 3.853-2.457 3.853h-8.494c-.745 0-1.416-.356-1.714-.998l-7.75-14.336c-.148-.216-.372-.358-.595-.358h-2.98c-1.342 0-2.31.928-2.31 2.21v11.27c0 1.284-.97 2.21-2.31 2.21h-8.346c-1.343 0-2.31-.926-2.31-2.21V159.82c0-1.282.967-2.21 2.31-2.21h16.315c13.263 0 18.627 5.42 18.627 17.117 0 6.633-1.714 11.27-5.662 13.98-.297.213-.372.57-.223.926l7.9 14.048zm-23.99-33.804c-1.342 0-2.31.927-2.31 2.21v5.278c0 1.283.97 2.21 2.31 2.21h3.8c3.576 0 5.364-.427 5.364-4.85s-1.79-4.85-5.366-4.85h-3.8zm68.17 33.804c1.043 1.855-.148 3.853-2.46 3.853h-8.492c-.745 0-1.416-.356-1.714-.998l-7.75-14.336c-.15-.216-.374-.358-.597-.358h-2.98c-1.342 0-2.31.928-2.31 2.21v11.27c0 1.284-.97 2.21-2.31 2.21h-8.346c-1.34 0-2.31-.926-2.31-2.21V159.82c0-1.282.97-2.21 2.31-2.21h16.317c13.263 0 18.627 5.42 18.627 17.117 0 6.633-1.713 11.27-5.66 13.98-.3.213-.374.57-.225.926l7.9 14.048zm-23.99-33.804c-1.343 0-2.31.927-2.31 2.21v5.278c0 1.283.967 2.21 2.31 2.21h3.8c3.575 0 5.363-.427 5.363-4.85s-1.788-4.85-5.364-4.85h-3.8zm39.333-12.268c1.49 0 2.235.713 2.235 2.14v45.645c0 1.355-.745 2.14-2.235 2.14h-8.195c-1.416 0-2.235-.784-2.235-2.14v-45.645c0-1.427.82-2.14 2.235-2.14h8.195zm35.688 17.688c-1.49.285-2.234-.356-2.458-1.783-.52-2.924-2.98-4.778-6.482-4.778-2.906 0-4.694 1.64-4.396 3.28 1.043 5.563 24.588 5.42 24.588 21.824 0 2.14-2.533 14.76-20.19 14.76-15.648 0-19-9.84-19.373-15.403-.075-1.284.596-2.068 1.937-2.354l8.42-1.783c1.49-.284 2.31.357 2.46 1.855.297 3.423 3.054 5.42 6.556 5.42 3.65 0 6.333-2.068 5.886-3.994-1.415-6.06-23.843-4.705-23.843-21.11-.072-2.14 1.27-14.76 17.96-14.76 15.35 0 18.924 9.556 19.37 14.69.075 1.284-.595 2.07-1.937 2.354l-8.496 1.783z"/><filter id="a" x="-20%" y="-20%" width="140%" height="140%"><feGaussianBlur in="SourceGraphic" stdDeviation="3" result="blur"/><feOffset in="blur" dx="2.5" dy="2.5"/></filter><path d="M78.145 157.608c1.267 0 2.087.5 2.608 1.64L90.886 183c.298.643.895.5.895-.214V159.75c0-1.427.82-2.14 2.237-2.14h8.345c1.49 0 2.236.713 2.236 2.14v45.645c0 1.355-.745 2.14-2.235 2.14H91.408c-1.267 0-2.086-.5-2.607-1.64l-10.133-23.75c-.298-.642-.894-.5-.894.214v23.035c0 1.355-.745 2.14-2.235 2.14h-8.345c-1.416 0-2.235-.784-2.235-2.14V159.75c0-1.427.82-2.14 2.235-2.14h10.953zm70.555 33.877c0 4.707-1.043 17.33-18.702 17.33-17.658 0-18.7-12.623-18.7-17.33v-17.83c0-4.707 1.042-17.33 18.7-17.33 17.66 0 18.702 12.623 18.702 17.33v17.83zm-12.815-14.05c0-5.49-.373-8.843-5.887-8.843s-5.886 3.352-5.886 8.844v10.27c0 5.492.372 8.844 5.886 8.844s5.887-3.352 5.887-8.844v-10.27zm58.78 26.245c1.044 1.855-.147 3.853-2.457 3.853h-8.494c-.745 0-1.416-.356-1.714-.998l-7.75-14.336c-.148-.216-.372-.358-.595-.358h-2.98c-1.342 0-2.31.928-2.31 2.21v11.27c0 1.284-.97 2.21-2.31 2.21h-8.346c-1.343 0-2.31-.926-2.31-2.21V159.82c0-1.282.967-2.21 2.31-2.21h16.315c13.263 0 18.627 5.42 18.627 17.117 0 6.633-1.714 11.27-5.662 13.98-.297.213-.372.57-.223.926l7.9 14.048zm-23.99-33.804c-1.342 0-2.31.927-2.31 2.21v5.278c0 1.283.97 2.21 2.31 2.21h3.8c3.576 0 5.364-.427 5.364-4.85s-1.79-4.85-5.366-4.85h-3.8zm68.17 33.804c1.043 1.855-.148 3.853-2.46 3.853h-8.492c-.745 0-1.416-.356-1.714-.998l-7.75-14.336c-.15-.216-.374-.358-.597-.358h-2.98c-1.342 0-2.31.928-2.31 2.21v11.27c0 1.284-.97 2.21-2.31 2.21h-8.346c-1.34 0-2.31-.926-2.31-2.21V159.82c0-1.282.97-2.21 2.31-2.21h16.317c13.263 0 18.627 5.42 18.627 17.117 0 6.633-1.713 11.27-5.66 13.98-.3.213-.374.57-.225.926l7.9 14.048zm-23.99-33.804c-1.343 0-2.31.927-2.31 2.21v5.278c0 1.283.967 2.21 2.31 2.21h3.8c3.575 0 5.363-.427 5.363-4.85s-1.788-4.85-5.364-4.85h-3.8zm39.333-12.268c1.49 0 2.235.713 2.235 2.14v45.645c0 1.355-.745 2.14-2.235 2.14h-8.195c-1.416 0-2.235-.784-2.235-2.14v-45.645c0-1.427.82-2.14 2.235-2.14h8.195zm35.688 17.688c-1.49.285-2.234-.356-2.458-1.783-.52-2.924-2.98-4.778-6.482-4.778-2.906 0-4.694 1.64-4.396 3.28 1.043 5.563 24.588 5.42 24.588 21.824 0 2.14-2.533 14.76-20.19 14.76-15.648 0-19-9.84-19.373-15.403-.075-1.284.596-2.068 1.937-2.354l8.42-1.783c1.49-.284 2.31.357 2.46 1.855.297 3.423 3.054 5.42 6.556 5.42 3.65 0 6.333-2.068 5.886-3.994-1.415-6.06-23.843-4.705-23.843-21.11-.072-2.14 1.27-14.76 17.96-14.76 15.35 0 18.924 9.556 19.37 14.69.075 1.284-.595 2.07-1.937 2.354l-8.496 1.783z" class="logo-fill" filter="url(#a)"/></symbol><symbol id="social-01" viewBox="0 0 48 48"><circle fill="#57595B" cx="24" cy="24" r="24"/><path fill="#FFF" d="M33.2 9H14.798C11.6 9 9 11.6 9 14.797v18.405C9 36.4 11.6 39 14.797 39H33.2c3.198 0 5.8-2.6 5.8-5.797V14.797C39 11.6 36.398 9 33.2 9zm1.665 3.46l.662-.005v5.084l-5.066.016-.017-5.084 4.422-.013zM19.72 20.92c.96-1.33 2.52-2.2 4.28-2.2s3.32.87 4.28 2.2c.626.867 1 1.93 1 3.078 0 2.91-2.37 5.28-5.28 5.28-2.912 0-5.28-2.37-5.28-5.28 0-1.148.374-2.21 1-3.078zm16.358 12.28c0 1.587-1.29 2.876-2.877 2.876H14.798c-1.586 0-2.875-1.29-2.875-2.875v-12.28H16.4c-.387.95-.604 1.99-.604 3.077 0 4.523 3.68 8.203 8.203 8.203 4.522 0 8.202-3.68 8.202-8.203 0-1.088-.22-2.127-.605-3.078h4.48v12.28z"/></symbol><symbol id="social-02" viewBox="0 0 48 48"><circle fill="#57595B" cx="24" cy="24" r="24"/><path fill="#FFF" d="M13.365 23.737c-.047 0 .514 1.206.53 1.206 1.223 2.22 3.58 3.6 7.56 3.98-.57.432-1.25 1.25-1.346 2.195-.715.46-2.15.613-3.266.262-1.564-.494-2.163-3.588-4.505-3.147-.508.095-.407.43.03.714.715.46 1.387 1.04 1.904 2.27.4.942 1.235 2.63 3.88 2.63 1.05 0 1.786-.128 1.786-.128s.02 2.41.02 3.346c0 1.08-1.46 1.386-1.46 1.905 0 .206.484.226.87.226.768 0 2.364-.64 2.364-1.763 0-.892.015-3.892.015-4.417 0-1.147.614-1.51.614-1.51s.076 6.124-.147 6.945c-.262.966-.735.83-.735 1.26 0 .64 1.92.157 2.558-1.25.492-1.094.277-7.103.277-7.103l.525-.01s.03 2.75.01 4.007c-.017 1.302-.106 2.95.668 3.725.508.51 2.156 1.406 2.156.587 0-.476-.903-.866-.903-2.153V31.59c.72 0 .613 1.947.613 1.947l.052 3.62s-.16 1.32 1.428 1.87c.56.198 1.756.25 1.813-.078.056-.33-1.443-.82-1.457-1.842-.01-.622.028-.986.028-3.693s-.363-3.708-1.63-4.505c3.91-.4 6.332-1.37 7.51-3.96.093.003.482-1.21.43-1.21.265-.977.41-2.134.436-3.503-.007-3.715-1.785-5.03-2.126-5.645.503-2.813-.085-4.092-.358-4.53-1.008-.36-3.506.92-4.872 1.822-2.224-.65-6.928-.588-8.692.168-3.255-2.33-4.977-1.972-4.977-1.972s-1.112 1.993-.293 4.91c-1.07 1.364-1.87 2.33-1.87 4.888.006 1.443.176 2.733.558 3.86z"/></symbol><symbol id="social-03" viewBox="0 0 48 48"><circle fill="#57595B" cx="24" cy="24" r="24"/><g fill="#FFF"><path d="M35.31 22.07c-.505 0-.99.11-1.427.306C33.588 18.802 30.8 16 27.4 16c-.834 0-1.646.176-2.36.474-.28.115-.353.235-.357.466v12.585c.004.243.178.447.4.47.01.003 10.16.005 10.228.005C37.35 30 39 28.226 39 26.037c0-2.19-1.652-3.967-3.69-3.967zM15.713 26.293l-.266-5.327c-.006-.136-.106-.24-.227-.24-.12 0-.22.104-.227.24l-.234 5.327.233 3.444c.006.134.105.24.227.24.12 0 .22-.106.227-.242v.002l.266-3.444zM14.498 26.293l-.283-3.276c-.008-.122-.094-.214-.2-.214s-.196.095-.202.216l-.25 3.273.25 3.442c.006.122.094.212.2.212s.194-.09.202-.212l.283-3.442zM16.94 26.295l-.248-6.547c-.008-.15-.12-.27-.254-.27-.135 0-.246.12-.252.27l-.22 6.547.22 3.42c.006.15.117.268.252.268s.246-.117.254-.27v.003l.248-3.42zM10.45 29.253c.06 0 .114-.052.122-.13l.336-2.83-.334-2.898c-.01-.076-.062-.13-.125-.13-.065 0-.118.055-.126.13l-.297 2.897.297 2.83c.008.076.06.13.125.13zM11.627 29.76c.078 0 .14-.066.15-.156l.318-3.312-.318-3.436c-.01-.09-.072-.158-.15-.158s-.143.067-.15.158l-.28 3.436.28 3.312c.007.09.072.157.15.157zM19.205 18.966c-.006-.183-.137-.325-.303-.325-.166 0-.3.144-.305.326l-.19 7.33.19 3.365c.006.182.14.324.305.324.166 0 .297-.143.303-.323l.215-3.364-.215-7.33zM12.816 29.893c.092 0 .166-.08.176-.187l.3-3.413-.3-3.53c-.01-.108-.084-.188-.176-.188-.094 0-.17.08-.176.187l-.266 3.53.266 3.414c.007.107.083.187.176.187zM18.174 26.295l-.23-7.092c-.007-.166-.13-.298-.278-.298-.152 0-.273.132-.28.298l-.204 7.092.205 3.386c.006.167.127.297.28.297.148 0 .27-.13.276-.298v.003l.23-3.388zM20.672 26.295l-.195-7.145c-.004-.195-.148-.35-.33-.35-.18 0-.324.154-.328.35l-.175 7.145.174 3.333c.003.195.147.353.327.353.182 0 .326-.156.33-.352l.195-3.333zM9.34 24.375c-.062 0-.11.052-.12.126L9 26.29l.22 1.762c.01.073.058.126.12.126.06 0 .11-.052.12-.126l.26-1.76-.26-1.79c-.01-.075-.06-.127-.12-.127zM23.21 26.297l-.16-8.192c-.003-.222-.175-.405-.38-.405-.21 0-.38.183-.38.405l-.146 8.19.145 3.29c0 .223.17.408.38.408.205 0 .377-.185.38-.41v.005l.16-3.29zM23.93 16.93c-.22 0-.404.195-.408.434l-.166 8.933.166 3.243c.004.237.188.432.408.432.22 0 .402-.195.406-.434v.002l.182-3.243-.182-8.933c-.004-.24-.187-.434-.406-.434zM21.938 26.295l-.18-6.882c-.004-.212-.16-.38-.353-.38-.197 0-.352.168-.355.38l-.158 6.882.158 3.314c.004.207.158.375.355.375.193 0 .35-.168.353-.378v.002l.18-3.315z"/></g></symbol><symbol id="social-04" viewBox="0 0 48.002 48"><circle fill="#57595B" cx="24.001" cy="24" r="24.001"/><g fill="#FFF"><path d="M9 19h7v20H9z"/><circle cx="12.501" cy="12.5" r="3.5"/><path d="M39 28.01C39 22.61 37.838 19 31.547 19c-3.023 0-5.053 1.123-5.883 2.7h-.086V19H20v20h5.83v-9.913c0-2.614.493-5.145 3.727-5.145 3.186 0 3.443 2.99 3.443 5.314V39h6V28.01z"/></g></symbol><symbol id="social-05" viewBox="0 0 48 48"><circle fill="#57595B" cx="24" cy="24" r="24"/><g fill="#FFF"><ellipse cx="15.098" cy="24" rx="7.098" ry="7"/><ellipse cx="32.904" cy="24" rx="7.096" ry="7"/></g></symbol><symbol id="social-06" viewBox="0 0 48 48"><circle fill="#57595B" cx="24" cy="24" r="24"/><g fill="#FFF"><path d="M13.15 34h5.415s5.91-.22 5.91-6.195c0 0 .258-4.864-3.484-4.864 0 0 2.84-.22 2.84-3.724 0-3.505-2.323-5.215-5.265-5.215H9.116v20h4.032zm0-16.518h5.415s1.315 0 1.315 2.035c0 2.037-.773 2.333-1.65 2.333h-5.08v-4.368zm0 7.39h5.415s1.96-.03 1.96 2.688c0 2.29-1.464 2.526-2.233 2.545-.145.002-.266 0-.348 0H13.15V24.87zM32.358 18.983c-7.154 0-7.148 7.524-7.148 7.524s-.492 7.487 7.148 7.487c0 0 6.367.382 6.367-5.21H35.45s.11 2.108-2.982 2.108c0 0-3.275.23-3.275-3.408h9.64s1.054-8.5-6.475-8.5zm-3.203 5.888s.4-3.02 3.275-3.02 2.836 3.02 2.836 3.02h-6.11zM28.354 15.153h7.676V17h-7.676z"/></g></symbol><symbol id="social-07" viewBox="0 0 48 48"><circle fill="#57595B" cx="24" cy="24" r="24"/><g fill="#FFF"><path d="M31.938 29.666h1.29c.345 0 .624-.28.624-.626v-4.532h4.523c.344 0 .625-.282.625-.628v-1.29c0-.346-.28-.628-.625-.628h-4.523V17.43c0-.344-.28-.626-.625-.626h-1.29c-.345 0-.626.282-.626.626v4.532h-4.523c-.344 0-.625.282-.625.628v1.29c0 .346.28.628.625.628h4.524v4.532c0 .346.282.626.628.626z"/><path d="M14.12 37.56c1.143.292 2.374.44 3.65.44 1.15 0 2.243-.15 3.255-.444 3.154-.916 5.193-3.242 5.193-5.93 0-2.576-.826-4.118-3.045-5.69-.95-.676-1.817-1.664-1.832-1.97 0-.554.05-.818 1.29-1.787 1.604-1.257 2.486-2.91 2.486-4.658 0-1.583-.482-2.99-1.307-3.978h.638c.133 0 .262-.04.367-.117l1.78-1.292c.22-.16.314-.442.228-.7-.083-.26-.323-.435-.594-.435H18.27c-.87 0-1.756.153-2.623.452-2.9 1.002-4.93 3.477-4.93 6.02 0 3.6 2.784 6.33 6.507 6.415-.072.286-.11.568-.11.843 0 .554.142 1.08.43 1.587-.034.002-.065.002-.103.002-3.547 0-6.75 1.743-7.965 4.34-.32.673-.48 1.356-.48 2.03 0 .655.168 1.285.496 1.878.766 1.37 2.406 2.432 4.623 2.992zm.708-20.185c-.172-1.32.103-2.503.76-3.252.424-.485.98-.74 1.6-.74l.072.002c1.758.05 3.44 2.014 3.75 4.375.174 1.323-.12 2.565-.783 3.325-.424.485-.97.74-1.62.74h-.028c-1.724-.05-3.443-2.092-3.752-4.45zm3.38 10.94h.073c.59.007 1.165.095 1.708.26.186.128.365.252.54.37 1.253.856 2.08 1.422 2.313 2.33.054.227.08.456.08.677 0 2.334-1.737 3.518-5.165 3.518-2.6 0-4.633-1.597-4.633-3.636 0-1.875 2.378-3.52 5.087-3.52z"/></g></symbol><symbol id="social-08" viewBox="0 0 48 48"><circle fill="#57595B" cx="24" cy="24" r="24"/><path fill="#FFF" d="M17.15 38.81c.03.204.302.253.425.1.176-.222 2.444-2.933 3.215-5.64.218-.768 1.25-4.736 1.25-4.736.62 1.143 2.43 2.146 4.352 2.146 5.724 0 9.607-5.05 9.607-11.81C36 13.76 31.524 9 24.724 9 16.267 9 12 14.87 12 19.764c0 2.963 1.16 5.6 3.645 6.584.41.16.775.006.892-.432.083-.303.276-1.064.365-1.385.117-.43.073-.58-.256-.958-.72-.818-1.177-1.88-1.177-3.38 0-4.354 3.368-8.253 8.767-8.253 4.78 0 7.41 2.827 7.41 6.603 0 4.97-2.274 9.162-5.644 9.162-1.865 0-3.26-1.49-2.814-3.318.536-2.184 1.573-4.54 1.573-6.115 0-1.41-.783-2.586-2.402-2.586-1.904 0-3.434 1.906-3.434 4.46 0 1.626.57 2.728.57 2.728l-2.292 9.39c-.68 2.785-.102 6.2-.053 6.545z"/></symbol><symbol id="social-09" viewBox="0 0 48.002 48"><path fill="#57595B" d="M48.002 24c0 13.254-10.746 24-23.998 24C10.746 48 0 37.254 0 24 0 10.744 10.746 0 24.004 0c13.252 0 23.998 10.744 23.998 24z"/><path fill="#FFF" d="M20 39h6V24h4.453L31 18h-4.768v-2.4c0-1.168.78-1.44 1.326-1.44h3.366V9.02L26.29 9c-5.146 0-6.315 3.834-6.315 6.288V18H17v6h3v15z"/></symbol><symbol id="social-10" viewBox="0 0 48 48"><circle fill="#57595B" cx="24" cy="24" r="24"/><path fill="#FFF3F3" d="M37.515 19.727c-.002-.017-.007-.033-.01-.05-.006-.034-.012-.066-.02-.098-.005-.02-.012-.04-.018-.057-.01-.028-.018-.057-.03-.085-.008-.02-.017-.038-.026-.057-.01-.025-.024-.05-.04-.076-.01-.02-.02-.036-.032-.054-.016-.024-.032-.048-.05-.07-.012-.017-.025-.034-.04-.05-.017-.02-.037-.043-.057-.063-.014-.016-.03-.03-.045-.046-.02-.018-.043-.037-.066-.054l-.054-.04-.02-.014-12.36-8.242c-.392-.26-.9-.26-1.29 0L10.99 18.912c-.006.004-.012.01-.02.014l-.05.04c-.024.018-.046.036-.067.055l-.047.047c-.02.02-.04.04-.058.063l-.04.05-.05.07-.032.054-.04.077-.026.058-.03.085c-.006.018-.013.037-.018.056-.01.03-.014.064-.02.096l-.01.05c-.006.05-.01.1-.01.153v8.24c0 .052.004.103.01.153l.01.05c.006.033.012.065.02.098.005.02.012.04.018.057.01.028.018.057.03.085.008.02.017.038.026.056.012.026.025.052.04.078.01.018.022.036.033.053l.05.07.04.05c.018.02.037.042.058.062.015.016.03.03.047.045.02.02.043.038.066.056l.053.04.02.014 12.362 8.242c.195.13.42.195.645.195.224 0 .45-.065.645-.196l12.363-8.243c.006-.004.012-.01.02-.014l.052-.04c.022-.018.044-.036.066-.056.016-.014.03-.03.046-.045.02-.02.04-.04.058-.063l.04-.05.05-.07c.01-.02.02-.037.032-.054.015-.026.027-.05.04-.078.01-.018.018-.037.026-.056l.03-.085c.006-.018.013-.037.018-.056.01-.03.015-.064.02-.097l.01-.05c.006-.05.01-.1.01-.152v-8.24c0-.052-.005-.103-.01-.153zM25.162 13.81l9.107 6.07-4.07 2.72-5.038-3.37v-5.42zm-2.324 0v5.42l-5.04 3.37-4.068-2.72 9.108-6.07zM12.8 22.054L15.708 24 12.8 25.945v-3.89zM22.838 34.19l-9.107-6.07 4.07-2.722 5.038 3.37v5.422zM24 26.75L19.89 24 24 21.25 28.11 24 24 26.75zm1.162 7.44v-5.42l5.04-3.37 4.067 2.72-9.108 6.07zM35.2 25.945L32.292 24l2.908-1.945v3.89z"/></symbol></svg>